<?xml version="1.0" encoding="UTF-8"?>
<svg id="Layer_1" xmlns="http://www.w3.org/2000/svg" version="1.1" viewBox="0 0 64 64">
  <!-- Generator: Adobe Illustrator 29.8.2, SVG Export Plug-In . SVG Version: 2.1.1 Build 3)  -->
  <defs>
    <style>
      .st0 {
        fill: #f60;
      }

      .st1 {
        fill: #fff;
      }

      .st2 {
        fill: #303030;
      }
    </style>
  </defs>
  <rect class="st2" width="64" height="64" rx="12" ry="12"/>
  <ellipse class="st0" cx="18.51" cy="35.55" rx="9.96" ry="9.94" transform="translate(-19.32 48.79) rotate(-81.79)"/>
  <path class="st1" d="M35.38,18.23l-9.59,8.17c-.33.28-.38.79-.11,1.13l2.22,2.76c.27.34.76.39,1.09.1l9.59-8.17c.33-.28.38-.79.11-1.13l-2.22-2.76c-.27-.34-.76-.39-1.09-.1Z"/>
  <ellipse class="st0" cx="42.84" cy="15.23" rx="5.96" ry="5.78" transform="translate(21.65 55.46) rotate(-81.79)"/>
  <path class="st1" d="M43.64,22.91l1.33,15.75c.04.44.41.76.84.72l3.48-.34c.43-.04.74-.43.71-.87l-1.33-15.75c-.04-.44-.41-.76-.84-.72l-3.48.34c-.43.04-.74.43-.71.87Z"/>
  <ellipse class="st0" cx="48.24" cy="47.32" rx="7.4" ry="7.18" transform="translate(-5.49 88.31) rotate(-81.79)"/>
  <path class="st1" d="M27.61,43.73l10.99,4.75c.39.17.85-.02,1.02-.43l1.38-3.32c.17-.41-.01-.88-.41-1.05l-10.99-4.75c-.39-.17-.85.02-1.02.43l-1.38,3.32c-.17.41.01.88.41,1.05Z"/>
</svg>